<?xml version="1.0" encoding="UTF-8" standalone="no"?>
<!DOCTYPE svg PUBLIC "-//W3C//DTD SVG 1.1//EN" "http://www.w3.org/Graphics/SVG/1.1/DTD/svg11.dtd">
<svg width="100%" height="100%" viewBox="0 0 1109 192" version="1.1" xmlns="http://www.w3.org/2000/svg" xmlns:xlink="http://www.w3.org/1999/xlink" xml:space="preserve" xmlns:serif="http://www.serif.com/" style="fill-rule:evenodd;clip-rule:evenodd;stroke-linejoin:round;stroke-miterlimit:2;">
    <g transform="matrix(1,0,0,1,-79.144485,-263.834211)">
        <g transform="matrix(3.587568,0,0,3.587568,92.347,185.858558)">
            <path d="M186.274,74.74C183.807,74.74 181.439,74.37 179.17,73.63C176.95,72.89 174.878,71.805 172.954,70.374C171.079,68.894 169.427,67.093 167.996,64.972L170.66,62.234C172.831,65.391 175.248,67.661 177.912,69.042C180.576,70.374 183.413,71.04 186.422,71.04C189.037,71.04 191.38,70.596 193.452,69.708C195.524,68.771 197.152,67.513 198.336,65.934C199.569,64.306 200.186,62.481 200.186,60.458C200.186,59.077 199.939,57.893 199.446,56.906C199.002,55.919 198.336,55.056 197.448,54.316C196.609,53.576 195.573,52.935 194.34,52.392C193.156,51.8 191.799,51.282 190.27,50.838C188.79,50.345 187.187,49.851 185.46,49.358C183.092,48.667 180.971,47.952 179.096,47.212C177.271,46.472 175.692,45.584 174.36,44.548C173.077,43.512 172.091,42.279 171.4,40.848C170.759,39.417 170.438,37.666 170.438,35.594C170.438,33.571 170.833,31.721 171.622,30.044C172.461,28.367 173.62,26.911 175.1,25.678C176.58,24.445 178.282,23.507 180.206,22.866C182.179,22.175 184.301,21.83 186.57,21.83C189.234,21.83 191.553,22.225 193.526,23.014C195.549,23.754 197.325,24.815 198.854,26.196C200.383,27.577 201.765,29.205 202.998,31.08L200.26,33.744C199.175,32.067 197.966,30.611 196.634,29.378C195.302,28.145 193.797,27.207 192.12,26.566C190.492,25.875 188.642,25.53 186.57,25.53C184.202,25.53 182.081,25.974 180.206,26.862C178.381,27.701 176.925,28.885 175.84,30.414C174.755,31.943 174.212,33.695 174.212,35.668C174.212,37.049 174.459,38.258 174.952,39.294C175.495,40.33 176.309,41.243 177.394,42.032C178.529,42.772 179.935,43.463 181.612,44.104C183.339,44.696 185.386,45.288 187.754,45.88C190.171,46.472 192.367,47.163 194.34,47.952C196.313,48.741 198.015,49.679 199.446,50.764C200.926,51.849 202.036,53.157 202.776,54.686C203.565,56.215 203.96,58.065 203.96,60.236C203.96,62.999 203.195,65.49 201.666,67.71C200.137,69.881 198.04,71.607 195.376,72.89C192.712,74.123 189.678,74.74 186.274,74.74ZM230.139,74.74C227.673,74.74 225.305,74.37 223.035,73.63C220.815,72.89 218.743,71.805 216.819,70.374C214.945,68.894 213.292,67.093 211.861,64.972L214.525,62.234C216.696,65.391 219.113,67.661 221.777,69.042C224.441,70.374 227.278,71.04 230.287,71.04C232.902,71.04 235.245,70.596 237.317,69.708C239.389,68.771 241.017,67.513 242.201,65.934C243.435,64.306 244.051,62.481 244.051,60.458C244.051,59.077 243.805,57.893 243.311,56.906C242.867,55.919 242.201,55.056 241.313,54.316C240.475,53.576 239.439,52.935 238.205,52.392C237.021,51.8 235.665,51.282 234.135,50.838C232.655,50.345 231.052,49.851 229.325,49.358C226.957,48.667 224.836,47.952 222.961,47.212C221.136,46.472 219.557,45.584 218.225,44.548C216.943,43.512 215.956,42.279 215.265,40.848C214.624,39.417 214.303,37.666 214.303,35.594C214.303,33.571 214.698,31.721 215.487,30.044C216.326,28.367 217.485,26.911 218.965,25.678C220.445,24.445 222.147,23.507 224.071,22.866C226.045,22.175 228.166,21.83 230.435,21.83C233.099,21.83 235.418,22.225 237.391,23.014C239.414,23.754 241.19,24.815 242.719,26.196C244.249,27.577 245.63,29.205 246.863,31.08L244.125,33.744C243.04,32.067 241.831,30.611 240.499,29.378C239.167,28.145 237.663,27.207 235.985,26.566C234.357,25.875 232.507,25.53 230.435,25.53C228.067,25.53 225.946,25.974 224.071,26.862C222.246,27.701 220.791,28.885 219.705,30.414C218.62,31.943 218.077,33.695 218.077,35.668C218.077,37.049 218.324,38.258 218.817,39.294C219.36,40.33 220.174,41.243 221.259,42.032C222.394,42.772 223.8,43.463 225.477,44.104C227.204,44.696 229.251,45.288 231.619,45.88C234.037,46.472 236.232,47.163 238.205,47.952C240.179,48.741 241.881,49.679 243.311,50.764C244.791,51.849 245.901,53.157 246.641,54.686C247.431,56.215 247.825,58.065 247.825,60.236C247.825,62.999 247.061,65.49 245.531,67.71C244.002,69.881 241.905,71.607 239.241,72.89C236.577,74.123 233.543,74.74 230.139,74.74ZM282.44,74.74C278.592,74.74 275.016,74.099 271.71,72.816C268.454,71.484 265.593,69.659 263.126,67.34C260.709,64.972 258.81,62.185 257.428,58.978C256.096,55.722 255.43,52.17 255.43,48.322C255.43,44.474 256.096,40.947 257.428,37.74C258.76,34.484 260.61,31.672 262.978,29.304C265.346,26.936 268.134,25.111 271.34,23.828C274.547,22.496 278,21.83 281.7,21.83C284.315,21.83 286.905,22.225 289.47,23.014C292.036,23.754 294.379,24.79 296.5,26.122C298.622,27.405 300.299,28.885 301.532,30.562L299.016,33.152C297.734,31.672 296.13,30.365 294.206,29.23C292.332,28.095 290.309,27.207 288.138,26.566C285.968,25.875 283.871,25.53 281.848,25.53C278.691,25.53 275.731,26.097 272.968,27.232C270.255,28.367 267.862,29.945 265.79,31.968C263.768,33.991 262.189,36.408 261.054,39.22C259.92,41.983 259.352,45.017 259.352,48.322C259.352,51.627 259.92,54.661 261.054,57.424C262.238,60.187 263.891,62.604 266.012,64.676C268.134,66.699 270.6,68.277 273.412,69.412C276.224,70.497 279.283,71.04 282.588,71.04C285.351,71.04 287.892,70.645 290.21,69.856C292.529,69.017 294.527,67.858 296.204,66.378C297.931,64.898 299.263,63.171 300.2,61.198C301.138,59.225 301.606,57.079 301.606,54.76L301.606,51.208L302.938,53.132L282.514,53.132L282.514,49.432L305.084,49.432C305.134,49.679 305.158,50.073 305.158,50.616C305.208,51.109 305.232,51.652 305.232,52.244C305.282,52.836 305.306,53.354 305.306,53.798C305.306,56.807 304.714,59.595 303.53,62.16C302.396,64.725 300.768,66.945 298.646,68.82C296.574,70.695 294.157,72.15 291.394,73.186C288.632,74.222 285.647,74.74 282.44,74.74Z" style="fill-rule:nonzero;"/>
        </g>
        <g transform="matrix(3.674427,0,0,3.674427,79.144485,179.322401)">
            <rect x="0" y="23" width="8.734" height="52.25" style="fill-rule:nonzero;"/>
        </g>
        <g transform="matrix(3.674427,0,0,3.674427,79.144485,179.322401)">
            <rect x="85.959" y="23" width="8.734" height="52.25" style="fill-rule:nonzero;"/>
        </g>
        <g transform="matrix(3.674427,0,0,3.674427,79.144485,179.322401)">
            <rect x="21.758" y="49.202" width="8.734" height="26.048" style="fill-rule:nonzero;"/>
        </g>
        <g transform="matrix(3.674427,0,0,3.674427,79.144485,179.322401)">
            <rect x="21.758" y="48.895" width="34.476" height="8.734" style="fill-rule:nonzero;"/>
        </g>
        <g transform="matrix(3.674427,0,0,3.674427,79.144485,179.322401)">
            <rect x="21.758" y="23" width="34.476" height="8.734" style="fill-rule:nonzero;"/>
        </g>
        <g transform="matrix(3.674427,0,0,3.674427,79.144485,179.322401)">
            <rect x="105.266" y="66.516" width="34.323" height="8.734" style="fill-rule:nonzero;"/>
        </g>
        <g transform="matrix(3.674427,0,0,3.674427,79.144485,179.322401)">
            <rect x="117.524" y="23" width="34.476" height="8.734" style="fill-rule:nonzero;"/>
        </g>
        <g transform="matrix(3.674427,0,0,3.674427,79.144485,179.322401)">
            <rect x="117.678" y="44.758" width="21.911" height="8.734" style="fill-rule:nonzero;"/>
        </g>
        <g transform="matrix(3.674427,0,0,3.674427,79.144485,179.322401)">
            <path d="M49.033,53.905L56.187,48.895L74.673,75.25L64,75.25L49.033,53.905Z" style="fill-rule:nonzero;"/>
        </g>
        <g transform="matrix(3.674427,0,0,3.674427,79.144485,179.322401)">
            <path d="M49.033,53.905L56.187,48.895L74.673,75.25L64,75.25L49.033,53.905Z" style="fill-rule:nonzero;"/>
        </g>
        <g transform="matrix(3.674427,0,0,3.674427,79.144485,179.322401)">
            <path d="M55.697,23C64.964,23 72.475,30.752 72.476,40.315C72.476,49.877 64.964,57.629 55.697,57.629C49.456,57.629 44.011,54.113 41.121,48.895L54.702,48.895C59.441,48.895 63.282,45.054 63.282,40.315C63.282,35.725 59.677,31.975 55.144,31.745L54.702,31.734L41.121,31.734C44.011,26.517 49.456,23 55.697,23Z" style="fill-rule:nonzero;"/>
        </g>
        <g transform="matrix(3.674427,0,0,3.674427,79.144485,179.322401)">
            <path d="M139.589,44.758C146.443,44.758 152,51.585 152,60.005C152,68.425 146.443,75.25 139.589,75.25C134.631,75.25 130.353,71.679 128.364,66.517L136.983,66.517L136.983,66.514C140.545,66.472 143.419,63.575 143.419,60.004C143.419,56.433 140.544,53.535 136.983,53.494L136.983,53.492L128.364,53.492C130.353,48.33 134.631,44.758 139.589,44.758Z" style="fill-rule:nonzero;"/>
        </g>
        <g transform="matrix(3.674427,0,0,3.674427,79.144485,179.322401)">
            <path d="M117.678,23C122.636,23 126.914,26.572 128.902,31.734L120.742,31.734L120.742,31.736C120.717,31.736 120.691,31.734 120.665,31.734C117.069,31.735 114.154,34.65 114.153,38.246C114.153,41.843 117.069,44.759 120.665,44.759C120.691,44.759 120.717,44.756 120.742,44.756L120.742,44.759L128.902,44.759C126.914,49.921 122.635,53.492 117.678,53.492C110.823,53.492 105.267,46.666 105.267,38.246C105.267,29.826 110.823,23 117.678,23Z" style="fill-rule:nonzero;"/>
        </g>
        <g transform="matrix(3.674427,0,0,3.674427,79.144485,179.322401)">
            <path d="M49.033,53.905L56.187,48.895L74.673,75.25L64,75.25L49.033,53.905Z" style="fill-rule:nonzero;"/>
        </g>
        <g transform="matrix(3.674427,0,0,3.674427,79.144485,179.322401)">
            <path d="M49.033,53.905L56.187,48.895L74.673,75.25L64,75.25L49.033,53.905Z" style="fill-rule:nonzero;"/>
        </g>
    </g>
</svg>
